<svg class="gi gi-backspace-outline" width="1em" height="1em" viewBox="0 0 24 24" fill="currentColor" xmlns="http://www.w3.org/2000/svg">
  <path d="M19 4a3 3 0 0 1 3 3h0v10a3 3 0 0 1-3 3h0-9.08a3 3 0 0 1-2.278-1.048h0l-5.4-6.302a1 1 0 0 1 0-1.302h0l5.4-6.302A3 3 0 0 1 9.92 4h0zm0 2H9.92a1 1 0 0 0-.759.349h0L4.317 12 9.16 17.65a1 1 0 0 0 .635.341h0L9.92 18H19a1 1 0 0 0 1-1h0V7a1 1 0 0 0-1-1h0zm-6.387 3.2l.094.083L14 10.585l1.293-1.292a1 1 0 0 1 1.497 1.32l-.083.094L15.415 12l1.292 1.293a1 1 0 0 1-1.32 1.497l-.094-.083L14 13.415l-1.293 1.292a1 1 0 0 1-1.497-1.32l.083-.094L12.585 12l-1.292-1.293a1 1 0 0 1 1.32-1.497z"/>
</svg>
