<svg class="gi gi-bell-outline" width="1em" height="1em" viewBox="0 0 24 24" fill="currentColor" xmlns="http://www.w3.org/2000/svg">
  <path d="M12 2a7 7 0 0 1 7 7v2.465a2 2 0 0 0 .267.999L20.73 15A2 2 0 0 1 18.998 18H16a4 4 0 0 1-7.995.2L8 18H5.002a2 2 0 0 1-1.733-2.999l1.463-2.537A2 2 0 0 0 5 11.465V9a7 7 0 0 1 7-7zm2 16h-4l.005.15A2 2 0 0 0 14 18h0zM12 4a5 5 0 0 0-4.995 4.783L7 9v2.465a4 4 0 0 1-.411 1.767l-.124.232L5.002 16h13.996l-1.463-2.537a4 4 0 0 1-.526-1.736l-.01-.262V9a5 5 0 0 0-5-5z"/>
</svg>
