<svg class="gi gi-droplet-off-outline" width="1em" height="1em" viewBox="0 0 24 24" fill="currentColor" xmlns="http://www.w3.org/2000/svg">
  <path d="M4.613 3.2l.094.083 16 16a1 1 0 0 1-1.32 1.497l-.094-.083-16-16a1 1 0 0 1 1.32-1.497zm1.04 5.27l1.43 1.43a6 6 0 0 0 4.917 9.44 6 6 0 0 0 3.439-1.083l1.43 1.43a8 8 0 0 1-4.869 1.652c-4.42 0-8-3.582-8-8a8 8 0 0 1 1.653-4.87zm7.055-5.738l4.95 4.95c2.386 2.386 2.95 5.905 1.69 8.827l-1.565-1.565a6 6 0 0 0-1.364-5.664l-.176-.183L12 4.864 9.846 7.017 8.432 5.603l2.86-2.86a1 1 0 0 1 1.414 0z"/>
</svg>
