<svg class="gi gi-eye-outline" width="1em" height="1em" viewBox="0 0 24 24" fill="currentColor" xmlns="http://www.w3.org/2000/svg">
  <path d="M12.002 5c3.602 0 6.877 2.145 9.826 6.434a1 1 0 0 1 .069 1.015l-.07.117-.246.352c-2.884 4.054-6.077 6.08-9.58 6.08-3.602 0-6.877-2.145-9.826-6.434a1 1 0 0 1-.069-1.015l.07-.117.246-.352C5.306 7.027 8.5 5 12.002 5zm0 2C9.3 7 6.756 8.568 4.3 11.9l-.073.1.073.102c2.38 3.226 4.85 4.796 7.443 4.894l.26.005c2.69 0 5.246-1.568 7.703-4.9l.072-.1-.072-.1c-2.38-3.226-4.85-4.796-7.443-4.894L12.002 7zM12 9a3 3 0 1 1 0 6 3 3 0 1 1 0-6zm0 2a1 1 0 1 0 0 2 1 1 0 1 0 0-2z"/>
</svg>
