<svg class="gi gi-filter-horizontal-outline" width="1em" height="1em" viewBox="0 0 24 24" fill="currentColor" xmlns="http://www.w3.org/2000/svg">
  <path d="M8 3a3 3 0 0 1 2.829 2H20a1 1 0 0 1 .117 1.993L20 7h-9.17a3 3 0 0 1-5.658 0L4 7a1 1 0 0 1-.117-1.993L4 5h1.17A3 3 0 0 1 8 3zm0 2a1 1 0 1 0 0 2 1 1 0 1 0 0-2zm10 4a3 3 0 1 1 0 6 3 3 0 0 1-2.829-1.999L4 13a1 1 0 0 1-.117-1.993L4 11h11.17A3 3 0 0 1 18 9zm0 2a1 1 0 1 0 0 2 1 1 0 1 0 0-2zm-6 4a3 3 0 0 1 2.829 2H20a1 1 0 0 1 .117 1.993L20 19h-5.17a3 3 0 0 1-5.658 0L4 19a1 1 0 0 1-.117-1.993L4 17h5.17A3 3 0 0 1 12 15zm0 2a1 1 0 1 0 0 2 1 1 0 1 0 0-2z"/>
</svg>
