<svg class="gi gi-filter-vertical-outline" width="1em" height="1em" viewBox="0 0 24 24" fill="currentColor" xmlns="http://www.w3.org/2000/svg">
  <path d="M6 3a1 1 0 0 1 .993.883L7 4v9.17a3 3 0 0 1 0 5.658L7 20a1 1 0 0 1-1.993.117L5 20v-1.17a3 3 0 0 1 0-5.659V4a1 1 0 0 1 1-1zm0 12a1 1 0 1 0 0 2 1 1 0 1 0 0-2zm6-12a3 3 0 0 1 1.001 5.829L13 20a1 1 0 0 1-1.993.117L11 20V8.83A3 3 0 0 1 12 3zm0 2a1 1 0 1 0 0 2 1 1 0 1 0 0-2zm6-2a1 1 0 0 1 .993.883L19 4v5.17a3 3 0 0 1 0 5.658L19 20a1 1 0 0 1-1.993.117L17 20v-5.17a3 3 0 0 1 0-5.659V4a1 1 0 0 1 1-1zm0 8a1 1 0 1 0 0 2 1 1 0 1 0 0-2z"/>
</svg>
