<svg class="gi gi-hard-drive-outline" width="1em" height="1em" viewBox="0 0 24 24" fill="currentColor" xmlns="http://www.w3.org/2000/svg">
  <path d="M15.614 3a3 3 0 0 1 2.734 1.765l.075.182 2.386 6.363a3 3 0 0 1 .183.838l.008.215V18a3 3 0 0 1-2.824 2.995L18 21H6a3 3 0 0 1-2.995-2.824L3 18v-5.637a3 3 0 0 1 .123-.849l.068-.204 2.386-6.363a3 3 0 0 1 2.613-1.94L8.386 3h7.228zM19 13H5v5a1 1 0 0 0 .883.993L6 19h12a1 1 0 0 0 .993-.883L19 18v-5zm-3.386-8H8.386a1 1 0 0 0-.886.536l-.05.113L5.442 11h13.115L16.55 5.65a1 1 0 0 0-.813-.641L15.614 5zM16 15a1 1 0 0 1 .117 1.993L16 17h-4a1 1 0 0 1-.117-1.993L12 15h4zm-8 2a1 1 0 1 0 0-2 1 1 0 1 0 0 2z"/>
</svg>
