<svg class="gi gi-home-outline" width="1em" height="1em" viewBox="0 0 24 24" fill="currentColor" xmlns="http://www.w3.org/2000/svg">
  <path d="M6.002 21a1 1 0 0 1-.992-.876h0L4.118 13H3.002c-.88 0-1.315-1.044-.744-1.668h0l.08-.08 9-8a1 1 0 0 1 1.329 0h0l9 8c.687.61.255 1.747-.664 1.747h0-1.117l-.89 7.124a1 1 0 0 1-.877.869h0l-.115.007zm6-15.662l-6.514 5.8.045.024a1 1 0 0 1 .441.61h0l.02.113.89 7.124h4.117v-3.5a.5.5 0 0 1 .5-.5h1a.5.5 0 0 1 .5.5V19h4.116L18 11.876a1 1 0 0 1 .462-.724h0l.044-.024-6.513-5.8z"/>
</svg>
