<svg class="gi gi-inbox-outline" width="1em" height="1em" viewBox="0 0 24 24" fill="currentColor" xmlns="http://www.w3.org/2000/svg">
  <path d="M15.614 3a3 3 0 0 1 2.734 1.765l.075.182 2.386 6.363a3 3 0 0 1 .183.838l.008.215V18a3 3 0 0 1-2.824 2.995L18 21H6a3 3 0 0 1-2.995-2.824L3 18v-5.637a3 3 0 0 1 .123-.849l.068-.204 2.386-6.363a3 3 0 0 1 2.613-1.94L8.386 3h7.228zM7 13H5v5a1 1 0 0 0 .883.993L6 19h12a1 1 0 0 0 .993-.883L19 18v-5h-2v3a1 1 0 0 1-.883.993L16 17H8a1 1 0 0 1-.993-.883L7 16v-3zm8.614-8H8.386a1 1 0 0 0-.886.536l-.05.113L5.442 11H8a1 1 0 0 1 .993.883L9 12v3h6v-3a1 1 0 0 1 .883-.993L16 11h2.557L16.55 5.65a1 1 0 0 0-.813-.641L15.614 5z"/>
</svg>
