<svg class="gi gi-map-outline" width="1em" height="1em" viewBox="0 0 24 24" fill="currentColor" xmlns="http://www.w3.org/2000/svg">
  <path d="M8.324 4.054l.123.052L12 5.88l3.553-1.775a1 1 0 0 1 .643-.086l.128.034.123.052 4 2a1 1 0 0 1 .545.77L21 7v12a1 1 0 0 1-1.341.94l-.106-.046L16 18.118l-3.553 1.776a1 1 0 0 1-.643.086l-.128-.034-.123-.052L8 18.118l-3.553 1.776a1 1 0 0 1-1.421-.663l-.02-.117L3 19V7a1 1 0 0 1 .445-.832l.108-.063 4-2a1 1 0 0 1 .771-.052zM17 6.618v9.764l2 1V7.618l-2-1zm-10 0l-2 1v9.763l2-1V6.618zm2 0v9.763l2 1V7.618l-2-1zm6 0l-2 1v9.763l2-1V6.618z"/>
</svg>
