<svg class="gi gi-message-square-2-outline" width="1em" height="1em" viewBox="0 0 24 24" fill="currentColor" xmlns="http://www.w3.org/2000/svg">
  <path d="M19 2.435a3 3 0 0 1 3 3v10a3 3 0 0 1-3 3H8.303a1 1 0 0 0-.555.168L3.555 21.4A1 1 0 0 1 2 20.566V5.435a3 3 0 0 1 3-3h14zm0 2H5a1 1 0 0 0-.993.883L4 5.435v13.262l2.64-1.758a3 3 0 0 1 1.443-.496l.22-.008H19a1 1 0 0 0 .993-.883l.007-.117v-10a1 1 0 0 0-.883-.993L19 4.435zm-11 7a1 1 0 1 0 0-2 1 1 0 1 0 0 2zm4 0a1 1 0 1 0 0-2 1 1 0 1 0 0 2zm4 0a1 1 0 1 0 0-2 1 1 0 1 0 0 2z"/>
</svg>
