<svg class="gi gi-mic-off-outline" width="1em" height="1em" viewBox="0 0 24 24" fill="currentColor" xmlns="http://www.w3.org/2000/svg">
  <path d="M4.613 3.2l.094.083 16 16a1 1 0 0 1-1.32 1.497l-.094-.083-16-16a1 1 0 0 1 1.32-1.497zM6 10a1 1 0 0 1 1 1 5 5 0 0 0 5 5 5.02 5.02 0 0 0 1.059-.112l1.593 1.593a6.95 6.95 0 0 1-1.651.449L13 20h2a1 1 0 0 1 .117 1.993L15 22H9a1 1 0 0 1-.117-1.993L9 20h2v-2.07c-3.392-.485-6-3.403-6-6.93a1 1 0 0 1 1-1zm6-8a4 4 0 0 1 4 4v5c0 .632-.147 1.23-.408 1.762l-1.6-1.6.005-.08L14 11V6a2 2 0 0 0-3.995-.149L10 6v1.17L8.07 5.243A4 4 0 0 1 12 2zm-4 8.828l4.168 4.17L12 15a4 4 0 0 1-4-4v-.172zM18 10a1 1 0 0 1 1 1c0 1.466-.45 2.826-1.22 3.95l-1.45-1.45a4.97 4.97 0 0 0 .665-2.284L17 11a1 1 0 0 1 1-1z"/>
</svg>
