<svg class="gi gi-pin-outline" width="1em" height="1em" viewBox="0 0 24 24" fill="currentColor" xmlns="http://www.w3.org/2000/svg">
  <path d="M12 2c4.418 0 8 3.653 8 8.16 0 2.87-2.432 6.72-7.295 11.55a1 1 0 0 1-1.315.083l-.094-.083-.343-.343C6.317 16.696 4 12.96 4 10.16 4 5.653 7.582 2 12 2zm0 2c-3.305 0-6 2.75-6 6.16 0 2.01 1.873 5.133 5.725 9.136l.274.283.25-.256c3.767-3.9 5.65-6.98 5.747-9L18 10.16C18 6.75 15.305 4 12 4zm0 2.5a3.5 3.5 0 1 1 0 7 3.5 3.5 0 1 1 0-7zm0 2a1.5 1.5 0 1 0 0 3 1.5 1.5 0 1 0 0-3z"/>
</svg>
