<svg class="gi gi-save-outline" width="1em" height="1em" viewBox="0 0 24 24" fill="currentColor" xmlns="http://www.w3.org/2000/svg">
  <path d="M12.822 3a3 3 0 0 1 2.041.802L20.04 8.6A3 3 0 0 1 21 10.808V18a3 3 0 0 1-3 3H6a3 3 0 0 1-3-3V6a3 3 0 0 1 3-3h6.822zM8 5H6a1 1 0 0 0-.993.883L5 6v12a1 1 0 0 0 .883.993L6 19h2v-2a2 2 0 0 1 2-2h4a2 2 0 0 1 2 2v2h2a1 1 0 0 0 .993-.883L19 18v-7.192a1 1 0 0 0-.238-.647l-.082-.086-5.178-4.808a1 1 0 0 0-.555-.259L12.822 5H10v4h3a1 1 0 0 1 .993.883L14 10a1 1 0 0 1-.883.993L13 11H9a1 1 0 0 1-.993-.883L8 10V5zm6 12h-4v2h4v-2z"/>
</svg>
