<svg class="gi gi-settings-outline" width="1em" height="1em" viewBox="0 0 24 24" fill="currentColor" xmlns="http://www.w3.org/2000/svg">
  <path d="M14.622 2.67c1.54.782.363 2.544 1.753 3.553s2.3-1.047 3.92.568 1.88 3.345 1.62 4.993-2.288 1.077-2.836 2.763 1.674 1.938.67 3.903-2.58 2.82-4.243 3.086-1.754-1.844-3.508-1.844-1.294 2.2-3.508 1.844-3.46-1.556-4.243-3.086 1.204-2.257.67-3.903-2.486-.533-2.836-2.763.46-3.828 1.62-4.993 2.473.483 3.92-.568-.207-2.56 1.753-3.553 3.706-.782 5.247 0zm-4.115 1.675l-.2.096-.002.154c-.008.63-.034.95-.182 1.43-.222.722-.665 1.34-1.324 1.818-1.108.805-2.027.887-3.365.638L4.95 8.38l-.126.145a3.4 3.4 0 0 0-.797 2.711l.033.247.174.06c.58.193.88.317 1.282.597.612.426 1.058 1.027 1.305 1.788.41 1.266.208 2.15-.425 3.308l-.272.48.014.024c.55.978 1.28 1.54 2.434 1.777l.235.043.11-.146c.363-.49.58-.742.975-1.04.596-.448 1.307-.684 2.11-.684 1.32 0 2.126.47 3.017 1.405l.392.424.212-.048c.97-.247 1.7-.786 2.236-1.725l.1-.2-.1-.144c-.354-.5-.527-.788-.686-1.26-.238-.708-.24-1.458.007-2.223.4-1.228 1.107-1.88 2.22-2.422l.273-.128.3-.137.02-.21c.07-1.01-.203-1.838-.947-2.654l-.183-.193-.362.116c-1.2.366-2.213.33-3.3-.46-.998-.725-1.4-1.583-1.57-2.747l-.087-.725-.04-.02a3.4 3.4 0 0 0-2.994-.005zM12 8.5a3.5 3.5 0 1 1 0 7 3.5 3.5 0 1 1 0-7zm0 2a1.5 1.5 0 1 0 0 3 1.5 1.5 0 1 0 0-3z"/>
</svg>
