<svg class="gi gi-star-outline" width="1em" height="1em" viewBox="0 0 24 24" fill="currentColor" xmlns="http://www.w3.org/2000/svg">
  <path d="M12.445 2.543a1 1 0 0 1 .454.454l2.55 5.165 5.7.828a1 1 0 0 1 .554 1.706l-4.125 4.02.974 5.677a1 1 0 0 1-1.451 1.054l-5.098-2.68-5.098 2.68a1 1 0 0 1-1.451-1.054l.974-5.677-4.125-4.02a1 1 0 0 1 .554-1.706l5.7-.828 2.55-5.165a1 1 0 0 1 1.339-.454zM12.002 5.7l-1.652 3.35a2 2 0 0 1-1.345 1.064l-.16.03-3.695.537 2.674 2.606a2 2 0 0 1 .596 1.608l-.02.162-.632 3.68 3.305-1.737a2 2 0 0 1 1.7-.076l.162.076 3.304 1.737-.63-3.68a2 2 0 0 1 .463-1.651l.112-.12 2.673-2.606-3.695-.537a2 2 0 0 1-1.427-.95l-.078-.144-1.653-3.35z"/>
</svg>
