<svg class="gi gi-thermometer-plus-outline" width="1em" height="1em" viewBox="0 0 24 24" fill="currentColor" xmlns="http://www.w3.org/2000/svg">
  <path d="M15 2a3 3 0 0 1 3 3v8c1.214.912 2 2.364 2 4a5 5 0 1 1-10 0c0-1.636.785-3.088 2-4V5a3 3 0 0 1 3-3zm0 2a1 1 0 0 0-.993.883L14 5v8a2 2 0 0 1-.667 1.491l-.132.108A2.99 2.99 0 0 0 12 17a3 3 0 1 0 6 0 2.99 2.99 0 0 0-1.044-2.275L16.8 14.6a2 2 0 0 1-.791-1.428L16 13V5a1 1 0 0 0-1-1zM7 3a1 1 0 0 1 .993.883L8 4v1h1a1 1 0 0 1 .117 1.993L9 7H8v1a1 1 0 0 1-1.993.117L6 8V7H5a1 1 0 0 1-.117-1.993L5 5h1V4a1 1 0 0 1 1-1z"/>
</svg>
