<svg class="gi gi-unlock-outline" width="1em" height="1em" viewBox="0 0 24 24" fill="currentColor" xmlns="http://www.w3.org/2000/svg">
  <path d="M12 2a4 4 0 0 1 4 4 1 1 0 0 1-1.993.117l-.012-.266a2 2 0 0 0-3.972-.154l-.017.154L10 6v2h7a3 3 0 0 1 3 3v8a3 3 0 0 1-3 3H7a3 3 0 0 1-3-3v-8a3 3 0 0 1 3-3h1V6a4 4 0 0 1 4-4zm5 8H7a1 1 0 0 0-.993.883L6 11v8a1 1 0 0 0 .883.993L7 20h10a1 1 0 0 0 .993-.883L18 19v-8a1 1 0 0 0-.883-.993L17 10zm-5 2a3 3 0 1 1 0 6 3 3 0 1 1 0-6zm0 2a1 1 0 1 0 0 2 1 1 0 1 0 0-2z"/>
</svg>
