<svg class="gi gi-users-outline" width="1em" height="1em" viewBox="0 0 24 24" fill="currentColor" xmlns="http://www.w3.org/2000/svg">
  <path d="M9 13c1.852 0 3.537.72 4.79 1.894l.155.15C14.787 14.39 15.848 14 17 14a5 5 0 0 1 5 5 1 1 0 0 1-1 1h-5a1 1 0 0 1-1 1H3a1 1 0 0 1-1-1 7 7 0 0 1 7-7zm0 2c-2.398 0-4.402 1.688-4.888 3.94L4.1 19h9.797l-.01-.06c-.47-2.185-2.37-3.838-4.67-3.936L9 15zm8 1c-.623 0-1.202.2-1.68.515l-.174.128.01.02a6.96 6.96 0 0 1 .53 1.255l.025.08h4.12l-.004-.012c-.396-1.106-1.424-1.912-2.65-1.983L17 16zM9 3a4 4 0 1 1 0 8 4 4 0 1 1 0-8zm0 2a2 2 0 1 0 0 4 2 2 0 1 0 0-4zm8 2a3 3 0 1 1 0 6 3 3 0 1 1 0-6zm0 2a1 1 0 1 0 0 2 1 1 0 1 0 0-2z"/>
</svg>
