<svg class="gi gi-user-check-outline" width="1em" height="1em" viewBox="0 0 24 24" fill="currentColor" xmlns="http://www.w3.org/2000/svg">
  <path d="M9.5 13a7 7 0 0 1 7 7 1 1 0 0 1-1 1h-12a1 1 0 0 1-1-1 7 7 0 0 1 7-7zm0 2c-2.398 0-4.402 1.688-4.888 3.94L4.6 19h9.797l-.01-.06c-.47-2.185-2.37-3.838-4.67-3.936L9.5 15zm0-12a4 4 0 1 1 0 8 4 4 0 1 1 0-8zm0 2a2 2 0 1 0 0 4 2 2 0 1 0 0-4zm10.293.043a1 1 0 0 1 1.497 1.32l-.083.094-2.5 2.5a1 1 0 0 1-1.32.083l-.094-.083-1.5-1.5a1 1 0 0 1 1.32-1.497l.094.083.793.792 1.793-1.792z"/>
</svg>
