<svg class="gi gi-video-off-outline" width="1em" height="1em" viewBox="0 0 24 24" fill="currentColor" xmlns="http://www.w3.org/2000/svg">
  <path d="M4.613 3.2l.094.083 16 16a1 1 0 0 1-1.32 1.497l-.094-.083-16-16a1 1 0 0 1 1.32-1.497zM2.966 5.795l1.418 1.418a1 1 0 0 0-.377.671L4 8v8a1 1 0 0 0 .883.993L5 17h9c.054 0 .107-.004.158-.012l1.508 1.508c-.477.32-1.05.505-1.666.505H5a3 3 0 0 1-3-3V8a2.99 2.99 0 0 1 .966-2.205zM14 5a3 3 0 0 1 3 3v1.365l1.505-1.693a2 2 0 0 1 1.325-.665L20 7a2 2 0 0 1 1.995 1.851L22 9v5.996a2 2 0 0 1-.672 1.495c-.43.382-.98.545-1.512.496L15 12.17V8a1 1 0 0 0-.883-.993L14 7H9.828l-2-2H14zm6 4l-3 2.998 3 2.998V9z"/>
</svg>
