<svg class="gi gi-volume-down-outline" width="1em" height="1em" viewBox="0 0 24 24" fill="currentColor" xmlns="http://www.w3.org/2000/svg">
  <path d="M14.375 4.22A1 1 0 0 1 16 5.002h0v14a1 1 0 0 1-1.625.781h0L9.923 16.22a1 1 0 0 0-.625-.219h0H5a1 1 0 0 1-1-1h0v-6a1 1 0 0 1 1-1h4.298a1 1 0 0 0 .625-.219h0zM14 7.08l-2.827 2.264a3 3 0 0 1-1.874.657h0H6v4h3.298a3 3 0 0 1 1.692.523h0l.182.135L14 16.922V7.08zm3.445 1.09a1 1 0 0 1 1.387.277C19.604 9.604 20 10.794 20 12.002s-.397 2.398-1.168 3.555a1 1 0 1 1-1.664-1.109c.562-.843.832-1.653.832-2.445s-.27-1.602-.832-2.445a1 1 0 0 1 .277-1.387z"/>
</svg>
