<svg class="gi gi-x-square-outline" width="1em" height="1em" viewBox="0 0 24 24" fill="currentColor" xmlns="http://www.w3.org/2000/svg">
  <path d="M18 3a3 3 0 0 1 3 3v12a3 3 0 0 1-3 3H6a3 3 0 0 1-3-3V6a3 3 0 0 1 3-3h12zm0 2H6a1 1 0 0 0-.993.883L5 6v12a1 1 0 0 0 .883.993L6 19h12a1 1 0 0 0 .993-.883L19 18V6a1 1 0 0 0-.883-.993L18 5zm-7.387 4.2l.094.083L12 10.585l1.293-1.292a1 1 0 0 1 1.497 1.32l-.083.094L13.415 12l1.292 1.293a1 1 0 0 1-1.32 1.497l-.094-.083L12 13.415l-1.293 1.292a1 1 0 0 1-1.497-1.32l.083-.094L10.585 12l-1.292-1.293a1 1 0 0 1 1.32-1.497z"/>
</svg>
