<svg class="gi gi-flip" width="1em" height="1em" viewBox="0 0 24 24" fill="currentColor" xmlns="http://www.w3.org/2000/svg">
  <path d="M5 6.09v12l-1.29-1.3a1 1 0 0 0-1.42 1.42l3 3a1 1 0 0 0 1.42 0l3-3a1 1 0 0 0 0-1.42 1 1 0 0 0-1.42 0L7 18.09v-12A1.56 1.56 0 0 1 8.53 4.5H11a1 1 0 0 0 0-2H8.53A3.56 3.56 0 0 0 5 6.09z"/>
  <path d="M14.29 5.79a1 1 0 0 0 1.42 1.42L17 5.91v12a1.56 1.56 0 0 1-1.53 1.59H13a1 1 0 0 0 0 2h2.47A3.56 3.56 0 0 0 19 17.91v-12l1.29 1.3a1 1 0 0 0 1.42 0 1 1 0 0 0 0-1.42l-3-3a1 1 0 0 0-1.42 0z"/>
</svg>
