<svg class="gi gi-bell-off" width="1em" height="1em" viewBox="0 0 24 24" fill="currentColor" xmlns="http://www.w3.org/2000/svg">
  <path d="M4.613 3.2l.094.083 16 16a1 1 0 0 1-1.32 1.497l-.094-.083-16-16a1 1 0 0 1 1.32-1.497zM11.998 2a7 7 0 0 1 7 7v2.465a2 2 0 0 0 .267.999L20.728 15a2 2 0 0 1-.404 2.494L6.964 4.136A6.98 6.98 0 0 1 11.998 2zM5.082 7.91l10.845 10.845a4 4 0 0 1-7.924-.556l-.005-.2H5a2 2 0 0 1-1.733-2.999l1.463-2.537a2 2 0 0 0 .267-.999V9c0-.37.03-.734.084-1.09zM13.998 18h-4l.005.15a2 2 0 0 0 3.989 0l.005-.15z"/>
</svg>
