<svg class="gi gi-file-plus" width="1em" height="1em" viewBox="0 0 24 24" fill="currentColor" xmlns="http://www.w3.org/2000/svg">
  <path d="M14.4 2a1 1 0 0 1 .607.206l.1.087 4.6 4.58a1 1 0 0 1 .285.576l.01.132V19a3 3 0 0 1-2.824 2.995L17 22H7a3 3 0 0 1-2.995-2.824L4 19V5a3 3 0 0 1 2.824-2.995L7 2h7.4zM12 12a1 1 0 0 0-1 1h0v1h-1l-.117.007A1 1 0 0 0 10 16h1v1l.007.117A1 1 0 0 0 13 17h0v-1h1l.117-.007A1 1 0 0 0 14 14h0-1v-1l-.007-.117A1 1 0 0 0 12 12zm2-7.997V7a1 1 0 0 0 .883.993L15 8h3v-.005l-4-3.992z"/>
</svg>
