<svg class="gi gi-flip-horizontal" width="1em" height="1em" viewBox="0 0 24 24" fill="currentColor" xmlns="http://www.w3.org/2000/svg">
  <path d="M21 11a1 1 0 0 1-1.993.117L19 11V8a1 1 0 0 0-.883-.993L18 7H6.417l1.3 1.293a1 1 0 0 1 .083 1.32l-.083.094a1 1 0 0 1-1.32.083l-.094-.083-3-3a1 1 0 0 1-.083-1.32l.083-.094 3-3a1 1 0 0 1 1.497 1.32l-.083.094L6.415 5H18a3 3 0 0 1 2.995 2.824L21 8v3zM3 13a1 1 0 0 1 1.993-.117L5 13v3a1 1 0 0 0 .883.993L6 17h11.583l-1.3-1.293a1 1 0 0 1-.083-1.32l.083-.094a1 1 0 0 1 1.32-.083l.094.083 3 3a1 1 0 0 1 .083 1.32l-.083.094-3 3a1 1 0 0 1-1.497-1.32l.083-.094L17.585 19H6a3 3 0 0 1-2.995-2.824L3 16v-3z"/>
</svg>
