<svg class="gi gi-settings" width="1em" height="1em" viewBox="0 0 24 24" fill="currentColor" xmlns="http://www.w3.org/2000/svg">
  <path d="M14.622 2.67c1.54.782.363 2.544 1.753 3.553s2.3-1.047 3.92.568 1.88 3.345 1.62 4.993-2.288 1.077-2.836 2.763 1.674 1.938.67 3.903-2.58 2.82-4.243 3.086-1.754-1.844-3.508-1.844-1.294 2.2-3.508 1.844-3.46-1.556-4.243-3.086 1.204-2.257.67-3.903-2.486-.533-2.836-2.763.46-3.828 1.62-4.993 2.473.483 3.92-.568-.207-2.56 1.753-3.553 3.706-.782 5.247 0zM12 8.5a3.5 3.5 0 1 0 0 7 3.5 3.5 0 1 0 0-7zm0 5a1.5 1.5 0 1 0 0-3 1.5 1.5 0 1 0 0 3z"/>
</svg>
