<svg class="gi gi-backspace" width="1em" height="1em" viewBox="0 0 24 24" fill="currentColor" xmlns="http://www.w3.org/2000/svg">
  <path d="M19 4a3 3 0 0 1 3 3h0v10a3 3 0 0 1-3 3h0-9.08a3 3 0 0 1-2.278-1.048h0l-5.4-6.302a1 1 0 0 1 0-1.302h0l5.4-6.302A3 3 0 0 1 9.92 4h0zm-6.387 5.2a1 1 0 0 0-1.32 1.497h0L12.585 12l-1.292 1.293-.083.094a1 1 0 0 0 1.497 1.32h0L14 13.415l1.293 1.292.094.083a1 1 0 0 0 1.32-1.497h0L15.415 12l1.292-1.293.083-.094a1 1 0 0 0-1.497-1.32h0L14 10.585l-1.293-1.292z"/>
</svg>
