<svg class="gi gi-bulb" width="1em" height="1em" viewBox="0 0 24 24" fill="currentColor" xmlns="http://www.w3.org/2000/svg">
  <path d="M12 7a5 5 0 0 1 5 5c0 1.635-.785 3.087-2 4v4a2 2 0 0 1-2 2h-2a2 2 0 0 1-2-2v-4c-1.214-.912-2-2.364-2-4a5 5 0 0 1 5-5zm-7 4a1 1 0 0 1 .117 1.993L5 13H3a1 1 0 0 1-.117-1.993L3 11h2zm-.297-4.883A1 1 0 0 1 6.03 4.625l.087.078L7.53 6.117a1 1 0 0 1-1.327 1.492l-.087-.078-1.414-1.414zM12 2a1 1 0 0 1 .993.883L13 3v2a1 1 0 0 1-1.993.117L11 5V3a1 1 0 0 1 1-1zm7.3 4.117a1 1 0 0 0-1.327-1.492l-.087.078-1.414 1.414A1 1 0 0 0 17.8 7.609l.087-.078L19.3 6.117zM21 11a1 1 0 0 1 .117 1.993L21 13h-2a1 1 0 0 1-.117-1.993L19 11h2z"/>
</svg>
