<svg class="gi gi-double-arrow-right" width="1em" height="1em" viewBox="0 0 24 24" fill="currentColor" xmlns="http://www.w3.org/2000/svg">
  <path d="M4.293 5.293a1 1 0 0 0-.083 1.32l.083.094L9.585 12l-5.292 5.293a1 1 0 0 0-.083 1.32l.083.094a1 1 0 0 0 1.32.083l.094-.083 6-6a1 1 0 0 0 .083-1.32l-.083-.094-6-6a1 1 0 0 0-1.414 0zm8 0a1 1 0 0 0-.083 1.32l.083.094L17.585 12l-5.292 5.293a1 1 0 0 0-.083 1.32l.083.094a1 1 0 0 0 1.32.083l.094-.083 6-6a1 1 0 0 0 .083-1.32l-.083-.094-6-6a1 1 0 0 0-1.414 0z"/>
</svg>
