<svg class="gi gi-double-arrow-down" width="1em" height="1em" viewBox="0 0 24 24" fill="currentColor" xmlns="http://www.w3.org/2000/svg">
  <path d="M18.707 4.293a1 1 0 0 0-1.32-.083l-.094.083L12 9.585 6.707 4.293a1 1 0 0 0-1.32-.083l-.094.083a1 1 0 0 0-.083 1.32l.083.094 6 6a1 1 0 0 0 1.32.083l.094-.083 6-6a1 1 0 0 0 0-1.414zm0 8a1 1 0 0 0-1.32-.083l-.094.083L12 17.585l-5.293-5.292a1 1 0 0 0-1.32-.083l-.094.083a1 1 0 0 0-.083 1.32l.083.094 6 6a1 1 0 0 0 1.32.083l.094-.083 6-6a1 1 0 0 0 0-1.414z"/>
</svg>
