<svg class="gi gi-download" width="1em" height="1em" viewBox="0 0 24 24" fill="currentColor" xmlns="http://www.w3.org/2000/svg">
  <path d="M19 16.5a1 1 0 0 1 .993.883L20 17.5v2a1 1 0 0 1-.883.993L19 20.5H5a1 1 0 0 1-.993-.883L4 19.5v-2a1 1 0 0 1 1.993-.117L6 17.5v1h12v-1a1 1 0 0 1 .883-.993L19 16.5zm-7-13a1 1 0 0 1 .993.883L13 4.5v7.585l2.293-2.292a1 1 0 0 1 1.32-.083l.094.083a1 1 0 0 1 .083 1.32l-.083.094-4 4a1.01 1.01 0 0 1-.112.097l-.11.072-.113.053-.105.035-.15.03L12 15.5l-.075-.003-.125-.017-.11-.03-.11-.044-.097-.052-.092-.064-.094-.083-4-4a1 1 0 0 1 1.32-1.497l.094.083L11 12.085V4.5a1 1 0 0 1 1-1z"/>
</svg>
