<svg class="gi gi-flash-off" width="1em" height="1em" viewBox="0 0 24 24" fill="currentColor" xmlns="http://www.w3.org/2000/svg">
  <path d="M4.613 3.2l.094.083 16 16a1 1 0 0 1-1.32 1.497l-.094-.083-16-16a1 1 0 0 1 1.32-1.497zm7.58-.795c.59-.812 1.848-.34 1.81.618l-.01.113-.838 5.847 5.848.001c.74 0 1.198.762.92 1.397l-.05.1-.06.092-2.696 3.704-7.85-7.85 2.928-4.02zM6.882 9.7l7.85 7.852-2.922 4.02c-.59.812-1.848.34-1.81-.617l.01-.113.837-5.86-5.847.001c-.74 0-1.2-.763-.92-1.398l.05-.1.06-.092L6.882 9.7z"/>
</svg>
