<svg class="gi gi-flip-vertical" width="1em" height="1em" viewBox="0 0 24 24" fill="currentColor" xmlns="http://www.w3.org/2000/svg">
  <path d="M11 3a1 1 0 0 1 .117 1.993L11 5H8a1 1 0 0 0-.993.883L7 6v11.583l1.293-1.3a1 1 0 0 1 1.32-.083l.094.083a1 1 0 0 1 .083 1.32l-.083.094-3 3a1 1 0 0 1-1.32.083l-.094-.083-3-3a1 1 0 0 1 1.32-1.497l.094.083L5 17.585V6a3 3 0 0 1 2.824-2.995L8 3h3zm2 18a1 1 0 0 1-.117-1.993L13 19h3a1 1 0 0 0 .993-.883L17 18V6.417l-1.293 1.3a1 1 0 0 1-1.32.083l-.094-.083a1 1 0 0 1-.083-1.32l.083-.094 3-3a1 1 0 0 1 1.32-.083l.094.083 3 3a1 1 0 0 1-1.32 1.497l-.094-.083L19 6.415V18a3 3 0 0 1-2.824 2.995L16 21h-3z"/>
</svg>
