<svg class="gi gi-grayshift" width="1em" height="1em" viewBox="0 0 24 24" fill="currentColor" xmlns="http://www.w3.org/2000/svg">
  <path d="M4.93 4.93c3.905-3.905 10.237-3.905 14.142 0s3.905 10.237 0 14.142-10.237 3.905-14.142 0-3.905-10.237 0-14.142zM12 6.343a4 4 0 0 0-5.657 0 8 8 0 0 0 0 11.314c.58.58 1.226 1.052 1.915 1.416a4 4 0 0 1 .914-4.244h0L12 12a4 4 0 0 0 0-5.657zm4.596 8.132a1.5 1.5 0 1 0-2.121 2.121 1.5 1.5 0 1 0 2.121-2.121zM10.232 8.11a1.5 1.5 0 0 1-2.121 2.121 1.5 1.5 0 0 1 2.121-2.121z"/>
</svg>
