<svg class="gi gi-hash" width="1em" height="1em" viewBox="0 0 24 24" fill="currentColor" xmlns="http://www.w3.org/2000/svg">
  <path d="M16.684 3.017a1 1 0 0 1 .813 1.051l-.015.116L16.767 8H20a1 1 0 0 1 .117 1.993L20 10h-3.608l-.75 4H20a1 1 0 0 1 .117 1.993L20 16h-4.733l-.784 4.184a1 1 0 0 1-1.981-.253l.015-.116.715-3.816H9.267l-.784 4.184a1 1 0 0 1-1.981-.253l.015-.116L7.232 16H4a1 1 0 0 1-.117-1.993L4 14h3.607l.75-4H4a1 1 0 0 1-.117-1.993L4 8h4.732l.785-4.184a1 1 0 0 1 1.981.253l-.015.116L10.767 8h3.965l.785-4.184a1 1 0 0 1 1.167-.799zM14.357 10h-3.965l-.75 4h3.965l.75-4z"/>
</svg>
