<svg class="gi gi-move" width="1em" height="1em" viewBox="0 0 24 24" fill="currentColor" xmlns="http://www.w3.org/2000/svg">
  <path d="M13 18.583l1.293-1.3a1 1 0 0 1 1.32-.083l.094.083a1 1 0 0 1 .083 1.32l-.083.094-3 3a1 1 0 0 1-1.32.083l-.094-.083-3-3a1 1 0 0 1 1.32-1.497l.094.083L11 18.585V13H5.415l1.292 1.293.083.094a1 1 0 0 1-1.403 1.403l-.094-.083-3-3-.083-.094a1 1 0 0 1 0-1.226l.083-.094 3-3 .094-.083a1 1 0 0 1 1.226 0l.094.083.083.094a1 1 0 0 1 0 1.226l-.083.094L5.417 11H11V5.415L9.707 6.707l-.094.083A1 1 0 0 1 8.21 5.387l.083-.094 3-3 .094-.083a1 1 0 0 1 1.226 0l.094.083 3 3 .083.094a1 1 0 0 1 0 1.226l-.083.094-.094.083a1 1 0 0 1-1.226 0l-.094-.083L13 5.417V11h5.583l-1.3-1.293a1 1 0 0 1-.083-1.32l.083-.094a1 1 0 0 1 1.32-.083l.094.083 3 3a1 1 0 0 1 .083 1.32l-.083.094-3 3a1 1 0 0 1-1.497-1.32l.083-.094L18.585 13H13v5.583z"/>
</svg>
