<svg class="gi gi-shopping-bag" width="1em" height="1em" viewBox="0 0 24 24" fill="currentColor" xmlns="http://www.w3.org/2000/svg">
  <path d="M15.757 3a3 3 0 0 1 2.121.879L20.12 6.12A3 3 0 0 1 21 8.243V18a3 3 0 0 1-3 3H6a3 3 0 0 1-3-3V8.243a3 3 0 0 1 .879-2.121L6.12 3.88A3 3 0 0 1 8.243 3h7.515zM15 11a1 1 0 0 0-1 1h0l-.005.15-.017.154a2 2 0 0 1-3.972-.154h0L10 12a1 1 0 1 0-2 0 4 4 0 1 0 8 0 1 1 0 0 0-1-1zm.757-6H8.243l-.13.01a1 1 0 0 0-.477.197h0l-.1.087L5.828 7h12.344l-1.708-1.707-.1-.087a1 1 0 0 0-.477-.197h0l-.13-.01z"/>
</svg>
