<svg class="gi gi-swap" width="1em" height="1em" viewBox="0 0 24 24" fill="currentColor" xmlns="http://www.w3.org/2000/svg">
  <path d="M3 7a1 1 0 0 0 .883.993L4 8h13.584l-1.29 1.293a1 1 0 0 0-.083 1.32l.083.094a1 1 0 0 0 1.32.083l.094-.083 3-3a1 1 0 0 0 .083-1.32l-.083-.094-3-3a1 1 0 0 0-1.497 1.32l.083.094L17.586 6H4a1 1 0 0 0-1 1zm18 10a1 1 0 0 1-.883.993L20 18H6.416l1.29 1.293a1 1 0 0 1 .083 1.32l-.083.094a1 1 0 0 1-1.32.083l-.094-.083-3-3a1 1 0 0 1-.083-1.32l.083-.094 3-3a1 1 0 0 1 1.497 1.32l-.083.094L6.414 16H20a1 1 0 0 1 1 1z"/>
</svg>
