<svg class="gi gi-upload" width="1em" height="1em" viewBox="0 0 24 24" fill="currentColor" xmlns="http://www.w3.org/2000/svg">
  <path d="M12 20.5a1 1 0 0 0 .993-.883L13 19.5v-7.585l2.293 2.292a1 1 0 0 0 1.32.083l.094-.083a1 1 0 0 0 .083-1.32l-.083-.094-4-4a1.01 1.01 0 0 0-.112-.097l-.11-.072-.113-.053-.105-.035-.15-.03L12 8.5l-.075.003-.125.017-.11.03-.11.044-.097.052-.092.064-.094.083-4 4a1 1 0 0 0 1.32 1.497l.094-.083L11 11.915V19.5a1 1 0 0 0 1 1zm7-13a1 1 0 0 0 .993-.883L20 6.5v-2a1 1 0 0 0-.883-.993L19 3.5H5a1 1 0 0 0-.993.883L4 4.5v2a1 1 0 0 0 1.993.117L6 6.5v-1h12v1a1 1 0 0 0 .883.993L19 7.5z"/>
</svg>
