<svg class="gi gi-volume-up" width="1em" height="1em" viewBox="0 0 24 24" fill="currentColor" xmlns="http://www.w3.org/2000/svg">
  <path d="M12.375 4.22L7.923 7.78A1 1 0 0 1 7.298 8H3a1 1 0 0 0-1 1v6a1 1 0 0 0 1 1h4.298a1 1 0 0 1 .625.219l4.452 3.562A1 1 0 0 0 14 19V5a1 1 0 0 0-1.625-.781zm6.07.95a1 1 0 0 1 1.387.277C21.27 7.602 22 9.792 22 12s-.73 4.398-2.168 6.555a1 1 0 1 1-1.664-1.109C19.397 15.602 20 13.792 20 12s-.603-3.602-1.832-5.445a1 1 0 0 1 .277-1.387zm-3 3a1 1 0 0 1 1.387.277C17.604 9.602 18 10.792 18 12s-.397 2.398-1.168 3.555a1 1 0 1 1-1.664-1.109C15.73 13.602 16 12.792 16 12s-.27-1.602-.832-2.445a1 1 0 0 1 .277-1.387z"/>
</svg>
