<svg class="gi gi-volume-off" width="1em" height="1em" viewBox="0 0 24 24" fill="currentColor" xmlns="http://www.w3.org/2000/svg">
  <path d="M4.613 3.2l.094.083 16 16a1 1 0 0 1-1.32 1.497l-.094-.083-16-16a1 1 0 0 1 1.32-1.497zM5.172 8L14 16.83v2.173c0 .8-.884 1.262-1.534.846l-.09-.065-4.452-3.562a1 1 0 0 0-.49-.21l-.135-.01H3a1 1 0 0 1-.993-.883L2 15.002v-6a1 1 0 0 1 .883-.993L3 8.002 5.172 8zm14.66-2.554C21.27 7.604 22 9.794 22 12.002c0 1.88-.53 3.748-1.575 5.594l-1.476-1.477C19.653 14.732 20 13.362 20 12.002c0-1.792-.603-3.602-1.832-5.445a1 1 0 1 1 1.664-1.109zM12.375 4.22c.625-.5 1.537-.098 1.62.67l.006.112v6.17L9.416 6.588l2.96-2.367zm4.457 4.226C17.604 9.604 18 10.794 18 12.002c0 .866-.204 1.723-.604 2.565l-1.544-1.545a3.67 3.67 0 0 0 .148-1.02c0-.792-.27-1.602-.832-2.445a1 1 0 1 1 1.664-1.109z"/>
</svg>
