<svg class="gi gi-wifi" width="1em" height="1em" viewBox="0 0 24 24" fill="currentColor" xmlns="http://www.w3.org/2000/svg">
  <path d="M12 4c3.208 0 6.398 1.063 9.555 3.168a1 1 0 1 1-1.109 1.664C17.602 6.937 14.792 6 12 6s-5.602.937-8.445 2.832a1 1 0 1 1-1.109-1.664C5.602 5.063 8.792 4 12 4zm0 5c2.208 0 4.398.73 6.555 2.168a1 1 0 1 1-1.109 1.664C15.602 11.603 13.792 11 12 11s-3.602.603-5.445 1.832a1 1 0 1 1-1.109-1.664C7.602 9.73 9.792 9 12 9zm0 5c1.208 0 2.398.397 3.555 1.168a1 1 0 1 1-1.109 1.664C13.602 16.27 12.792 16 12 16s-1.602.27-2.445.832a1 1 0 1 1-1.109-1.664C9.602 14.397 10.792 14 12 14zm0 6a1 1 0 1 0 0-2 1 1 0 1 0 0 2z"/>
</svg>
