<svg class="gi gi-arrow-circle-left-up-outline" width="1em" height="1em" viewBox="0 0 24 24" fill="currentColor" xmlns="http://www.w3.org/2000/svg">
  <path d="M12 2c5.523 0 10 4.477 10 10s-4.477 10-10 10S2 17.523 2 12 6.477 2 12 2zm0 2a8 8 0 1 0 0 16 8 8 0 1 0 0-16zm3.536 11.536a1 1 0 0 0 .078-1.327l-.078-.087-3.948-3.948 1.827-.001a1 1 0 0 0 .992-.875l.008-.125a1 1 0 0 0-.875-.992l-.125-.008H9.172a1 1 0 0 0-.992.875l-.008.125v4.243a1 1 0 0 0 1.992.125l.008-.125v-1.83l3.95 3.95a1 1 0 0 0 1.414 0z"/>
</svg>
