<svg class="gi gi-battery-charging-outline" width="1em" height="1em" viewBox="0 0 24 24" fill="currentColor" xmlns="http://www.w3.org/2000/svg">
  <path d="M10.385 4.08a1 1 0 0 1 .565 1.203l-.04.1L8.507 11h4.484a1 1 0 0 1 .959 1.283l-.04.11-3 7a1 1 0 0 1-1.878-.678l.04-.1L11.474 13H6.99a1 1 0 0 1-.959-1.283l.04-.11 3-7a1 1 0 0 1 1.313-.525zM15 6a3 3 0 0 1 3 3v6a3 3 0 0 1-3 3h-2.404l.857-2H15a1 1 0 0 0 .993-.883L16 15V9a1 1 0 0 0-.883-.993L15 8h-4.12l.858-2H15zM7.386 6L6.53 8H5a1 1 0 0 0-.993.883L4 9v6a1 1 0 0 0 .883.993L5 16h4.1l-.857 2H5a3 3 0 0 1-3-3V9a3 3 0 0 1 3-3h2.386zM21 9a1 1 0 0 1 1 1v4a1 1 0 1 1-2 0v-4a1 1 0 0 1 1-1z"/>
</svg>
