<svg class="gi gi-folder-plus-outline" width="1em" height="1em" viewBox="0 0 24 24" fill="currentColor" xmlns="http://www.w3.org/2000/svg">
  <path d="M9.465 3.5a1 1 0 0 1 .832.445L12 6.5h7a3 3 0 0 1 3 3v8a3 3 0 0 1-3 3H5a3 3 0 0 1-3-3v-11a3 3 0 0 1 3-3h4.465zm-.536 2H5a1 1 0 0 0-.993.883L4 6.5v11a1 1 0 0 0 .883.993L5 18.5h14a1 1 0 0 0 .993-.883L20 17.5v-8a1 1 0 0 0-.883-.993L19 8.5h-7.535a1 1 0 0 1-.832-.445L8.93 5.5zm3.07 5a1 1 0 0 1 .993.883L13 11.5v1h1a1 1 0 0 1 .117 1.993L14 14.5h-1v1a1 1 0 0 1-1.993.117L11 15.5v-1h-1a1 1 0 0 1-.117-1.993L10 12.5h1v-1a1 1 0 0 1 1-1z"/>
</svg>
