<svg class="gi gi-layers-outline" width="1em" height="1em" viewBox="0 0 24 24" fill="currentColor" xmlns="http://www.w3.org/2000/svg">
  <path d="M12.324 3.054l.123.052 8 4c.698.35.735 1.312.1 1.725l-.1.064L18.236 10l2.21 1.106c.698.35.735 1.312.1 1.725l-.1.064L18.236 14l2.21 1.106c.698.35.735 1.312.1 1.725l-.1.064-8 4a1 1 0 0 1-.771.052l-.123-.052-8-4c-.698-.35-.735-1.312-.1-1.725l.1-.064L5.763 14l-2.2-1.106c-.698-.35-.735-1.312-.1-1.725l.1-.064L5.763 10l-2.2-1.106c-.698-.35-.735-1.312-.1-1.725l.1-.064 8-4a1 1 0 0 1 .771-.052zM16 15.118l-3.552 1.776a1 1 0 0 1-.771.052l-.123-.052L8 15.118 6.236 16 12 18.88 17.763 16 16 15.118zm0-4l-3.552 1.776a1 1 0 0 1-.771.052l-.123-.052L8 11.118 6.236 12 12 14.88 17.763 12 16 11.118zm-4-6L6.236 8 12 10.88 17.763 8 12 5.118z"/>
</svg>
