<svg class="gi gi-message-square-outline" width="1em" height="1em" viewBox="0 0 24 24" fill="currentColor" xmlns="http://www.w3.org/2000/svg">
  <path d="M19 2.335a3 3 0 0 1 3 3v10a3 3 0 0 1-3 3h-3.5a1 1 0 0 0-.8.4l-1.9 2.533a1 1 0 0 1-1.518.096l-.08-.096-1.9-2.533a1 1 0 0 0-.8-.4H5a3 3 0 0 1-3-3v-10a3 3 0 0 1 3-3h14zm0 2H5a1 1 0 0 0-.993.883L4 5.335v10a1 1 0 0 0 .883.993l.117.007h3.5a3 3 0 0 1 2.274 1.043l.126.157L12 19l1.1-1.466a3 3 0 0 1 2.199-1.193l.2-.007H19a1 1 0 0 0 .993-.883l.007-.117v-10a1 1 0 0 0-.883-.993L19 4.335zm-11 7a1 1 0 1 0 0-2 1 1 0 1 0 0 2zm4 0a1 1 0 1 0 0-2 1 1 0 1 0 0 2zm4 0a1 1 0 1 0 0-2 1 1 0 1 0 0 2z"/>
</svg>
