<svg class="gi gi-question-mark-circle-outline" width="1em" height="1em" viewBox="0 0 24 24" fill="currentColor" xmlns="http://www.w3.org/2000/svg">
  <path d="M12 2c5.523 0 10 4.477 10 10s-4.477 10-10 10S2 17.523 2 12 6.477 2 12 2zm0 2a8 8 0 1 0 0 16 8 8 0 1 0 0-16zm0 2a3.5 3.5 0 0 1 1.106 6.822l-.106.03V14a1 1 0 0 1-.883.993L12 15a1 1 0 0 1-.993-.883L11 14v-2a1 1 0 0 1 .883-.993L12 11a1.5 1.5 0 1 0 0-3 1.5 1.5 0 0 0-1.493 1.356L10.5 9.5a1 1 0 1 1-2 0A3.5 3.5 0 0 1 12 6zm0 12a1 1 0 1 0 0-2 1 1 0 1 0 0 2z"/>
</svg>
