<svg class="gi gi-share-outline" width="1em" height="1em" viewBox="0 0 24 24" fill="currentColor" xmlns="http://www.w3.org/2000/svg">
  <path d="M18 3a3 3 0 1 1 0 6 2.99 2.99 0 0 1-2.082-.84l-6.94 3.47a3.03 3.03 0 0 1 0 .741l6.94 3.47A2.99 2.99 0 0 1 18 15a3 3 0 1 1 0 6 3 3 0 0 1-3-3 3.03 3.03 0 0 1 .023-.371l-6.94-3.47A2.99 2.99 0 0 1 6 15a3 3 0 1 1 0-6 2.99 2.99 0 0 1 2.082.84l6.94-3.47A3.03 3.03 0 0 1 15 6a3 3 0 0 1 3-3zm0 14a1 1 0 1 0 0 2 1 1 0 1 0 0-2zM6 11a1 1 0 1 0 0 2 1 1 0 1 0 0-2zm12-6a1 1 0 1 0 0 2 1 1 0 1 0 0-2z"/>
</svg>
